# xmcd
#
# Track frame offsets: 
#        150
#        27148
#        45624
#        56663
#        71244
#        89454
#        109756
#        130112
#        152993
#        174505
#        199369
#        219998
#        244816
#        265675
#        286312
#
# Disc length: 4107 seconds
#
# Revision: 1
# Processed by: cddbd v1.5.2PL0 Copyright (c) Steve Scherf et al.
# Submitted via: ExactAudioCopy v1.0b3
#
DISCID=dc10090f
DTITLE=Various Artist - Rock Hard - Lauschangriff Vol. 12
DYEAR=2012
DGENRE=Heavy Metal
TTITLE0=Accept - Stalingrad
TTITLE1=Ministry - Double Tap
TTITLE2=Ashpyx - Deathhammer
TTITLE3=Cannibal Corpse - Demented Aggresstion
TTITLE4=Shinedown - Bully
TTITLE5=Axel Rudi Pell - Before I Die
TTITLE6=Adrenaline Mob - Indiffernt
TTITLE7=Woods Of Ypres - Travelling Alone
TTITLE8=Naglfar - An Extension Of His Arm And Will
TTITLE9=Savage Messiah - Plague Of Conscience
TTITLE10=Nomad Son - The Vigil
TTITLE11=Samsara Blues Experiment - Hangin' On The Wire
TTITLE12=Kissin' Dynamite - Money, Sex And Power
TTITLE13=Picture - Battle Plan
TTITLE14=Black Messiah - Windloni
EXTD=
EXTT0=
EXTT1=
EXTT2=
EXTT3=
EXTT4=
EXTT5=
EXTT6=
EXTT7=
EXTT8=
EXTT9=
EXTT10=
EXTT11=
EXTT12=
EXTT13=
EXTT14=
PLAYORDER=
